<?xml version="1.0" standalone="no"?>
<!DOCTYPE svg PUBLIC "-//W3C//DTD SVG 20010904//EN"
 "http://www.w3.org/TR/2001/REC-SVG-20010904/DTD/svg10.dtd">
<svg version="1.0" xmlns="http://www.w3.org/2000/svg"
 width="612.000000pt" height="612.000000pt" viewBox="0 0 612.000000 612.000000"
 preserveAspectRatio="xMidYMid meet">
<metadata>
Created by potrace 1.11, written by Peter Selinger 2001-2013
</metadata>
<g transform="translate(0.000000,612.000000) scale(0.100000,-0.100000)"
fill="#000000" stroke="none">
<path d="M440 5727 c-215 -64 -366 -220 -420 -434 -20 -76 -20 -115 -17 -1668
1 -875 5 -1601 9 -1614 22 -75 43 -129 57 -151 9 -14 23 -38 31 -54 19 -36
130 -148 167 -167 16 -8 30 -16 33 -20 8 -9 99 -49 118 -52 9 -1 22 -6 28 -9
25 -16 197 -20 857 -21 l697 0 1 -21 c1 -11 1 -24 0 -28 -1 -6 -1 -41 -1 -83
0 -11 0 -31 1 -45 1 -26 1 -38 -1 -105 0 -22 0 -71 0 -108 1 -38 -1 -71 -4
-74 -2 -3 -1 -16 4 -29 6 -15 5 -26 -2 -30 -6 -4 -174 -8 -372 -9 -199 -1
-370 -6 -381 -10 -26 -12 -63 -49 -80 -81 -9 -18 -13 -80 -13 -221 -1 -176 1
-200 19 -239 15 -32 32 -48 63 -64 42 -20 48 -20 1833 -20 2006 0 1831 -7
1879 76 26 44 26 47 26 239 -1 108 -4 205 -8 218 -8 29 -53 76 -84 90 -16 7
-153 11 -385 13 -412 2 -378 1 -370 14 3 6 2 10 -2 10 -5 0 -8 15 -7 32 2 18
3 60 4 93 1 179 1 212 0 235 -1 14 -1 32 -1 40 0 8 1 36 1 61 l0 46 713 0
c391 1 735 4 762 7 142 19 262 80 359 181 39 41 83 103 84 119 0 5 4 12 9 15
13 8 43 86 59 151 11 45 13 348 13 1630 0 866 -4 1593 -9 1615 -16 74 -18 81
-49 146 -39 83 -51 99 -118 174 -50 56 -178 131 -271 158 -27 8 -752 12 -2597
14 l-2560 2 -75 -22z"/>
</g>
</svg>
